<svg height="512" width="512" xmlns="http://www.w3.org/2000/svg"><path d="M504.5 151H7.5v-42c0-16.569 13.431-30 30-30h437c16.569 0 30 13.431 30 30z" fill="#43809f"/><path d="M474.5 79v72h30v-42c0-16.569-13.431-30-30-30z" fill="#3a7190"/><path d="M474.5 433h-437c-16.569 0-30-13.431-30-30V151h497v252c0 16.569-13.431 30-30 30z" fill="#a9dbf5"/><path d="M474.5 151v282c16.569 0 30-13.431 30-30V151z" fill="#88c3e0"/><circle cx="55.507" cy="115.371" fill="#29cef6" r="15"/><circle cx="113.666" cy="115.371" fill="#f3f3f3" r="15"/><circle cx="171.825" cy="115.371" fill="#f78e36" r="15"/><path d="M382.5 234.868h-47c-8.284 0-15-6.716-15-15 0-8.284 6.716-15 15-15h47c8.284 0 15 6.716 15 15 0 8.284-6.716 15-15 15z" fill="#29cef6"/><path d="M459.5 294.868h-124c-8.284 0-15-6.716-15-15 0-8.284 6.716-15 15-15h124c8.284 0 15 6.716 15 15 0 8.284-6.716 15-15 15z" fill="#ffc328"/><path d="M422.665 354.868H335.5c-8.284 0-15-6.716-15-15 0-8.284 6.716-15 15-15h87.165c8.284 0 15 6.716 15 15 0 8.284-6.716 15-15 15z" fill="#f78e36"/><path d="M474.5 71.5h-26.261c-4.143 0-7.5 3.357-7.5 7.5s3.357 7.5 7.5 7.5H474.5c12.406 0 22.5 10.094 22.5 22.5v34.5H15V109c0-12.406 10.093-22.5 22.5-22.5h377.809c4.143 0 7.5-3.357 7.5-7.5s-3.357-7.5-7.5-7.5H37.5C16.822 71.5 0 88.322 0 109v82.681c0 4.143 3.358 7.5 7.5 7.5s7.5-3.357 7.5-7.5V158.5h482v193.366c0 4.143 3.357 7.5 7.5 7.5s7.5-3.357 7.5-7.5V109c0-20.678-16.822-37.5-37.5-37.5zm30 304.494a7.499 7.499 0 00-7.5 7.5V403c0 12.406-10.094 22.5-22.5 22.5h-437C25.093 425.5 15 415.406 15 403V223.867c0-4.143-3.358-7.5-7.5-7.5s-7.5 3.357-7.5 7.5V403c0 20.678 16.822 37.5 37.5 37.5h437c20.678 0 37.5-16.822 37.5-37.5v-19.506a7.5 7.5 0 00-7.5-7.5z"/><path d="M108.482 234.457a7.501 7.501 0 00-10.606 0l-45.07 45.07a7.5 7.5 0 000 10.608l44.474 44.474c1.464 1.464 3.384 2.196 5.303 2.196s3.839-.732 5.303-2.196a7.5 7.5 0 000-10.607l-39.171-39.17 39.767-39.767a7.5 7.5 0 000-10.608zm100.862 100.151c1.464 1.464 3.384 2.196 5.303 2.196s3.839-.732 5.303-2.196l44.475-44.474a7.502 7.502 0 000-10.608l-45.071-45.07a7.501 7.501 0 00-10.606 10.607l39.768 39.767L209.345 324a7.5 7.5 0 00-.001 10.608zm-77.354 27.626a7.502 7.502 0 007.013-4.841l53.294-140.398a7.5 7.5 0 00-14.023-5.324l-53.294 140.4a7.5 7.5 0 007.01 10.163zM33.006 115.371c0 12.406 10.093 22.5 22.5 22.5s22.5-10.094 22.5-22.5-10.093-22.5-22.5-22.5-22.5 10.094-22.5 22.5zm30 0c0 4.136-3.364 7.5-7.5 7.5s-7.5-3.364-7.5-7.5 3.364-7.5 7.5-7.5 7.5 3.364 7.5 7.5zm28.16 0c0 12.406 10.093 22.5 22.5 22.5s22.5-10.094 22.5-22.5-10.093-22.5-22.5-22.5-22.5 10.094-22.5 22.5zm30 0c0 4.136-3.364 7.5-7.5 7.5s-7.5-3.364-7.5-7.5 3.364-7.5 7.5-7.5 7.5 3.364 7.5 7.5zm28.159 0c0 12.406 10.093 22.5 22.5 22.5s22.5-10.094 22.5-22.5-10.093-22.5-22.5-22.5-22.5 10.094-22.5 22.5zm30 0c0 4.136-3.364 7.5-7.5 7.5s-7.5-3.364-7.5-7.5 3.364-7.5 7.5-7.5 7.5 3.364 7.5 7.5zM335.5 242.368h47c12.406 0 22.5-10.094 22.5-22.5s-10.094-22.5-22.5-22.5h-47c-12.406 0-22.5 10.094-22.5 22.5s10.094 22.5 22.5 22.5zm0-30h47c4.136 0 7.5 3.364 7.5 7.5s-3.364 7.5-7.5 7.5h-47c-4.136 0-7.5-3.364-7.5-7.5s3.364-7.5 7.5-7.5zm0 90h124c12.406 0 22.5-10.094 22.5-22.5s-10.094-22.5-22.5-22.5h-124c-12.406 0-22.5 10.094-22.5 22.5s10.094 22.5 22.5 22.5zm0-30h124c4.136 0 7.5 3.364 7.5 7.5s-3.364 7.5-7.5 7.5h-124c-4.136 0-7.5-3.364-7.5-7.5s3.364-7.5 7.5-7.5zm0 90h87.165c12.406 0 22.5-10.094 22.5-22.5s-10.094-22.5-22.5-22.5H335.5c-12.406 0-22.5 10.094-22.5 22.5s10.094 22.5 22.5 22.5zm0-30h87.165c4.136 0 7.5 3.364 7.5 7.5s-3.364 7.5-7.5 7.5H335.5c-4.136 0-7.5-3.364-7.5-7.5s3.364-7.5 7.5-7.5z"/></svg>